<svg width="20" height="20" viewBox="0 0 20 20" fill="none" xmlns="http://www.w3.org/2000/svg">
<path d="M19.009 7.45756C18.5038 7.02628 17.8713 6.79216 17.2305 6.79216H16.5816H14.2445H12.9137V3.67464C12.9137 2.36438 12.5317 1.41968 11.7759 0.865183C10.5807 -0.0138002 8.9336 0.487302 8.86377 0.511947C8.6584 0.577665 8.51875 0.766605 8.51875 0.98019V4.46737C8.51875 5.60512 7.97657 6.57036 6.90454 7.33844C6.1036 7.91348 5.28622 8.16403 5.19997 8.19278L5.08085 8.22153C4.90424 7.92169 4.57975 7.72043 4.20598 7.72043H1.01453C0.455921 7.72043 0 8.17635 0 8.73496V18.1163C0 18.6749 0.455921 19.1308 1.01453 19.1308H4.21419C4.52636 19.1308 4.80977 18.987 4.9946 18.7652C5.50802 19.3115 6.23503 19.6524 7.02365 19.6524H9.73043H10.0097H15.5588C17.4441 19.6524 18.6476 18.6666 18.8612 16.9415L19.9661 10.0863C20.118 9.10052 19.7525 8.0901 19.009 7.45756ZM4.23884 18.1163C4.23884 18.1327 4.22652 18.145 4.21009 18.145H1.01453C0.998098 18.145 0.985776 18.1327 0.985776 18.1163V8.73496C0.985776 8.71853 0.998098 8.70621 1.01453 8.70621H4.21419C4.23062 8.70621 4.24294 8.71853 4.24294 8.73496V18.1163H4.23884ZM18.9844 9.93021L17.8836 16.7978C17.8836 16.8019 17.8836 16.8101 17.8795 16.8183C17.7275 18.0464 16.9471 18.6708 15.5547 18.6708H10.0056H9.72632H7.01955C6.14467 18.6708 5.3848 18.0177 5.24926 17.1551C5.24515 17.1264 5.23694 17.0976 5.22872 17.0689V9.19909L5.44231 9.1498C5.45052 9.1498 5.45463 9.1457 5.46284 9.1457C5.50392 9.13337 6.47737 8.85818 7.45904 8.15992C8.80216 7.20701 9.50863 5.9296 9.50863 4.46737V1.3745C9.9358 1.30467 10.6669 1.26771 11.1968 1.66202C11.6814 2.01936 11.9279 2.69708 11.9279 3.67464V7.28094C11.9279 7.55203 12.1497 7.77383 12.4208 7.77383H14.2445H16.5816H17.2305C17.6372 7.77383 18.0438 7.9258 18.3683 8.2051C18.853 8.61995 19.0912 9.28124 18.9844 9.93021Z" fill="black"/>
</svg>
