<svg width="20" height="20" viewBox="0 0 20 20" fill="none" xmlns="http://www.w3.org/2000/svg">
<path d="M19.9628 9.9178L18.8618 3.05674C18.6481 1.33531 17.4444 0.345184 15.5586 0.345184H10.0081H9.72874H7.02129C6.23248 0.345184 5.50528 0.686183 4.99173 1.2326C4.80685 1.00664 4.52337 0.866954 4.21113 0.866954H1.01478C0.456035 0.866954 0 1.32299 0 1.88173V11.2654C0 11.8241 0.456035 12.2801 1.01478 12.2801H4.21524C4.585 12.2801 4.91367 12.0788 5.09033 11.7789L5.20948 11.8077C5.39025 11.8611 8.52908 12.8348 8.52908 15.534V19.0221C8.52908 19.2357 8.66877 19.4288 8.87419 19.4904C8.91117 19.5027 9.40418 19.6548 10.0369 19.6548C10.5833 19.6548 11.2324 19.5438 11.783 19.1371C12.5389 18.5825 12.921 17.6375 12.921 16.3269V13.2128H14.2521H16.5898H17.2389C17.8799 13.2128 18.5125 12.9745 19.0179 12.5472C19.7574 11.9145 20.123 10.9038 19.9628 9.9178ZM4.23989 11.2695C4.23989 11.2859 4.22757 11.2982 4.21113 11.2982H1.01478C0.998346 11.2982 0.986021 11.2859 0.986021 11.2695V1.88584C0.986021 1.86941 0.998346 1.85708 1.01478 1.85708H4.21524C4.23167 1.85708 4.244 1.86941 4.244 1.88584V11.2695H4.23989ZM18.377 11.7995C18.0524 12.0788 17.6457 12.2308 17.2389 12.2308H16.5898H14.2521H12.4239C12.1527 12.2308 11.9309 12.4527 11.9309 12.7239V16.331C11.9309 17.3089 11.6844 17.9867 11.1996 18.3442C10.6655 18.7386 9.93416 18.6975 9.511 18.6318V15.5381C9.511 14.0755 8.80024 12.7978 7.46089 11.8447C6.47898 11.1503 5.50528 10.871 5.4642 10.8586C5.45598 10.8586 5.45188 10.8545 5.44366 10.8545L5.23002 10.8052V2.9376C5.23824 2.90884 5.24645 2.88008 5.25056 2.85132C5.38614 1.98855 6.1462 1.33531 7.02129 1.33531H9.72874H10.0081H15.5586C16.9513 1.33531 17.7319 1.95979 17.884 3.18821C17.884 3.19643 17.884 3.20054 17.8881 3.20464L18.9932 10.0698C19.0959 10.7231 18.8577 11.3845 18.377 11.7995Z" fill="black"/>
</svg>
